<svg width="91" height="63" viewBox="0 0 91 63" fill="none" xmlns="http://www.w3.org/2000/svg">
<path d="M3.848 62.492V37.896C3.848 35.816 3.70933 34.0827 3.432 32.696C3.15467 31.2747 2.86 30.1307 2.548 29.264C2.16667 28.2587 1.75067 27.444 1.3 26.82L5.98 24.948C6.396 25.364 6.77733 25.884 7.124 26.508C7.40133 27.028 7.67867 27.6693 7.956 28.432C8.23333 29.16 8.44133 30.0267 8.58 31.032C9.16933 28.952 10.1053 27.3747 11.388 26.3C12.6707 25.2253 14.456 24.688 16.744 24.688C18.3733 24.688 19.7773 25 20.956 25.624C22.1693 26.2133 23.1573 27.08 23.92 28.224C24.7173 29.3333 25.3067 30.6853 25.688 32.28C26.0693 33.8747 26.26 35.6427 26.26 37.584C26.26 39.56 25.9653 41.3973 25.376 43.096C24.7867 44.76 23.9373 46.1987 22.828 47.412C21.7533 48.6253 20.4533 49.5787 18.928 50.272C17.4027 50.9653 15.704 51.312 13.832 51.312C13.1733 51.312 12.4973 51.2773 11.804 51.208C11.1453 51.1387 10.4693 51.0693 9.776 51V61.452L3.848 62.492ZM15.756 28.848C14.8893 28.848 14.092 29.1427 13.364 29.732C12.636 30.3213 11.9947 31.1013 11.44 32.072C10.92 33.0427 10.504 34.1347 10.192 35.348C9.91467 36.5613 9.776 37.8093 9.776 39.092V46.58C10.1227 46.684 10.6427 46.8053 11.336 46.944C12.0293 47.0827 12.636 47.152 13.156 47.152C14.4733 47.152 15.5653 46.9267 16.432 46.476C17.2987 46.0253 17.992 45.4013 18.512 44.604C19.032 43.8067 19.396 42.8533 19.604 41.744C19.812 40.6347 19.916 39.4213 19.916 38.104C19.916 36.8907 19.8813 35.7293 19.812 34.62C19.7427 33.5107 19.552 32.5227 19.24 31.656C18.9627 30.7893 18.5467 30.1133 17.992 29.628C17.4373 29.108 16.692 28.848 15.756 28.848Z" fill="black"/>
<path d="M46.772 25.104H52.7V38.468C52.7 40.548 52.8213 42.2987 53.064 43.72C53.3413 45.1067 53.636 46.2333 53.948 47.1C54.3293 48.14 54.7453 48.9547 55.196 49.544L50.568 51.416C50.152 51.0347 49.7707 50.5493 49.424 49.96C49.1467 49.4747 48.852 48.8853 48.54 48.192C48.2627 47.464 48.072 46.6147 47.968 45.644C47.032 47.6893 45.7147 49.1453 44.016 50.012C42.3173 50.8787 40.5493 51.312 38.712 51.312C35.9733 51.312 34.0147 50.5147 32.836 48.92C31.692 47.3253 31.12 45.1413 31.12 42.368V25.104H37.048V42.264C37.048 43.72 37.308 44.864 37.828 45.696C38.348 46.528 39.232 46.944 40.48 46.944C41.2427 46.944 41.988 46.736 42.716 46.32C43.4787 45.8693 44.1547 45.2453 44.744 44.448C45.368 43.6507 45.8533 42.6973 46.2 41.588C46.5813 40.444 46.772 39.1787 46.772 37.792V25.104ZM71.5151 30.512C70.8911 30.512 70.2671 30.668 69.6431 30.98C69.0191 31.292 68.4644 31.7253 67.9791 32.28C67.4937 32.8 67.0951 33.4413 66.7831 34.204C66.4711 34.9667 66.3151 35.816 66.3151 36.752V51H60.3871V37.896C60.3871 35.816 60.2484 34.0827 59.9711 32.696C59.6937 31.2747 59.3991 30.1307 59.0871 29.264C58.7057 28.2587 58.2897 27.444 57.8391 26.82L62.5191 24.948C62.8311 25.3293 63.1604 25.7973 63.5071 26.352C63.7844 26.8373 64.0617 27.4093 64.3391 28.068C64.6164 28.7267 64.8417 29.5067 65.0151 30.408C65.7084 28.3973 66.7137 26.9587 68.0311 26.092C69.3484 25.1907 70.8391 24.74 72.5031 24.74C73.3004 24.74 74.0457 24.844 74.7391 25.052C75.4324 25.2253 75.7617 25.312 75.7271 25.312L74.0631 31.084C74.0977 31.084 73.8897 30.9973 73.4391 30.824C73.0231 30.616 72.3817 30.512 71.5151 30.512ZM84.6264 51.208C82.6504 51.208 81.1944 50.6707 80.2584 49.596C79.3224 48.4867 78.8544 47.0827 78.8544 45.384V14.34L84.7824 13.248V44.812C84.7824 45.6093 84.9384 46.164 85.2504 46.476C85.5624 46.788 86.013 46.944 86.6024 46.944C86.949 46.944 87.2784 46.9267 87.5904 46.892C87.937 46.8573 88.249 46.8053 88.5264 46.736C88.8384 46.6667 89.1157 46.5973 89.3584 46.528L90.0864 50.272C89.6357 50.4453 89.133 50.6013 88.5784 50.74C88.093 50.8787 87.521 50.9827 86.8624 51.052C86.2037 51.156 85.4584 51.208 84.6264 51.208Z" fill="#F772BE"/>
</svg>
